<svg width="139" height="20" xmlns="http://www.w3.org/2000/svg">
 <defs>
  <linearGradient y2="100%" y1="0%" x2="17.503%" x1="72.195%" id="a">
   <stop stop-color="#33D35E" offset="0%"/>
   <stop stop-color="#2AB6D9" offset="100%"/>
  </linearGradient>
 </defs>
 <g>
  <title>background</title>
  <rect fill="none" id="canvas_background" height="602" width="802" y="-1" x="-1"/>
 </g>
 <g>
  <title>Layer 1</title>
  <g id="svg_1" fill-rule="evenodd" fill="#2D314D">
   <path id="svg_2" d="m37.504002,16.097c2.851997,0 5.151997,-1.621998 5.952,-4.215999l-3.897003,0c-0.375999,0.665001 -1.139999,1.066001 -2.054996,1.066001c-1.237003,0 -2.065002,-0.674001 -2.320004,-1.978001l8.440002,0c0.050999,-0.352 0.081001,-0.694 0.081001,-1.037c0,-3.335 -2.537003,-5.95 -6.201,-5.95c-3.568001,0 -6.174999,2.564 -6.174999,6.049c0,3.473 2.627998,6.065998 6.174999,6.065998zm2.343998,-7.296998l-4.596001,0c0.317001,-1.129 1.110001,-1.749 2.252003,-1.749c1.181,0 2,0.613 2.343998,1.75l0,-0.000999zm10.945999,7.295999c1.32,0 2.5,-0.434001 3.43,-1.187999l0.336002,0.803999l3.027,0l0,-11.368999l-2.919003,0l-0.399998,0.88c-0.940002,-0.775 -2.135002,-1.222 -3.474003,-1.222c-3.475998,0 -5.960999,2.505 -5.960999,6.026c0,3.533 2.485001,6.069998 5.960999,6.069998l0,-0.000999zm0.524002,-3.466999c-1.466999,0 -2.545002,-1.108 -2.545002,-2.592999c0,-1.474999 1.069,-2.583 2.545002,-2.583c1.466,0 2.543999,1.108 2.543999,2.583c0,1.485 -1.077999,2.592999 -2.543999,2.592999zm13.123001,3.466999c3.019989,0 5.024994,-1.553999 5.024994,-3.929998c0,-2.883 -2.387001,-3.256001 -4.183006,-3.575001c-1.079987,-0.193 -1.949989,-0.344 -1.949989,-0.989999c0,-0.527 0.421989,-0.838 1.050003,-0.838c0.709999,0 1.196991,0.337 1.196991,1.063001l3.667,0c-0.043999,-2.303001 -1.919998,-3.843 -4.815994,-3.843c-2.911999,0 -4.854,1.47 -4.854,3.75c0,2.756999 2.337002,3.289 4.100002,3.574c1.091995,0.181 1.951988,0.368 1.951988,1.024c0,0.587 -0.542992,0.88 -1.11599,0.88c-0.741997,0 -1.32,-0.383 -1.32,-1.214001l-3.77,0c0.035999,2.463 1.918999,4.099998 5.018002,4.099998l0,-0.000999zm8.099991,3.858002c2.935997,0 4.344002,-1.257 5.876999,-4.736l4.764,-10.863l-4.206001,0l-2.249001,6.263l-2.411995,-6.263l-4.255005,0l4.698006,10.43c-0.530006,1.414 -0.983002,1.803999 -2.480003,1.803999l-1.078003,0l0,3.365002l1.341003,0zm18.503998,-3.858002c3.5,0 5.973,-2.514998 5.973,-6.047998s-2.472,-6.048 -5.973,-6.048a5.332,5.332 0 0 0 -2.824997,0.784l0,-4.534l-3.870003,0l0,15.473998l2.897003,0l0.369995,-0.843998c0.923004,0.771 2.102005,1.215999 3.428001,1.215999zm-0.522995,-3.466999c-1.467003,0 -2.545006,-1.108 -2.545006,-2.58c0,-1.486 1.078003,-2.594 2.545006,-2.594c1.465996,0 2.543999,1.108 2.543999,2.593c0,1.473 -1.087006,2.58 -2.543999,2.58l0,0.000999zm13.598,3.466999c1.32,0 2.5,-0.434001 3.43,-1.187999l0.335999,0.803999l3.027,0l0,-11.368999l-2.917999,0l-0.401001,0.88c-0.939003,-0.775 -2.135002,-1.222 -3.473999,-1.222c-3.476006,0 -5.959999,2.505 -5.959999,6.026c0,3.533 2.483994,6.069998 5.959999,6.069998l0,-0.000999zm0.523994,-3.466999c-1.466995,0 -2.544998,-1.108 -2.544998,-2.592999c0,-1.474999 1.07,-2.583 2.544998,-2.583c1.467003,0 2.545006,1.108 2.545006,2.583c0,1.485 -1.078003,2.592999 -2.545006,2.592999zm12.653,3.094998l0,-6.070998c0,-1.447001 0.702003,-2.299999 1.923004,-2.299999c0.986,0 1.483002,0.656999 1.483002,1.979999l0,6.389999l3.914993,0l0,-6.929999c0,-2.897 -1.732994,-4.773 -4.372993,-4.773c-1.470001,0 -2.733002,0.565 -3.580002,1.508l-0.537003,-1.172l-2.747002,0l0,11.368999l3.916,0l0,-0.001001zm13.748009,0l0,-4.807998l2.848007,4.807998l4.615997,0l-3.902008,-5.949998l3.542999,-5.419l-4.396988,0l-2.708008,4.454l0,-8.559l-3.916008,0l0,15.473998l3.916008,0z" fill-rule="nonzero" fill="#ffffff"/>
   <g id="svg_3" fill="url(#a)">
    <path id="svg_4" d="m11.051996,0.250002l-10.802,19.704l5.986,0l10.803001,-19.704l-5.987001,0z"/>
    <path id="svg_5" d="m18.420998,0.250002l-10.803001,19.704l5.986,0l10.803001,-19.704l-5.986,0z" opacity="0.5"/>
    <path id="svg_6" d="m25.788998,0.250002l-10.802001,19.704l5.986001,0l10.801998,-19.704l-5.985998,0z" opacity="0.15"/>
   </g>
  </g>
 </g>
</svg>